<svg id="Bee" xmlns="http://www.w3.org/2000/svg" width="250" height="250" viewBox="0 0 2000 2000">
  <defs>
    <style>
      .cls-1 {
        fill: #bf93dc;
      }

      .cls-1, .cls-2, .cls-3 {
        fill-rule: evenodd;
      }

      .cls-3 {
        fill: #ffd760;
      }
    </style>
  </defs>
  <path class="cls-1" d="M682,1517c-38.177,8.01-69.871-11.52-126-39-74.9-36.66-128.749-52.22-146-92-27.574-63.58,30.261-119.11,22-196-5.123-47.68-46.6-93.28-33-153,6.1-26.77,25.1-40.911,25-71-0.194-56.48-60.125-75.155-65-133-3.362-39.894,22.087-48.373,18-90-3.256-33.168-30.34-54.784-24-87,5.558-28.242,34.171-37.031,35-66,0.58-20.27-14.067-32.588-18-51-4.238-19.841-.569-41.419,11-65-14.29-20.219-22.449-41.66-22-64,0.666-33.117,24-53.348,32-79,4.96-15.9,2.967-61.169,19-70,18.414-10.142,49.971,9.384,69,27,33.364,30.887,34.988,64.162,55,115,12.06,30.635,27.414,47.216,36,79,11.184,41.4,2.1,66.431,16,107,8.647,25.231,29.95,44.506,32,77,1.738,27.552-18.467,58.661-6,83,13.058,25.493,42.417,19.27,55,43,20.172,38.042-36.354,88.142-17,124,15.221,28.2,62.3,18.282,87,48,9.841,11.839,19.421,42.52,13,87-11.507,79.72-79.342,134.04-66,191,14.1,60.18,97.873,61.22,110,122C805.857,1423.42,749.5,1502.85,682,1517Z"/>
  <path class="cls-2" d="M825.916,1939.28c-4.612,3.42-12.926.9-21.848-4.09-31.625-17.7-39.008-62.08-42.331-92.86-8.822-81.7.4-147.12-23.214-213.02-14.81-41.33-34.775-70.54-55.987-91.49-45.308-44.75-106.192-53-144.745-76.47-63.226-38.49-129.2-109.12-118.8-169.32,5.175-29.97,24.807-31.69,30.041-60.09,13.683-74.23-108.5-133.58-92.855-199.36,8.709-36.619,52.526-36.725,60.083-75.1,10.137-51.483-64.033-91.345-50.524-143.38,4.154-16,13.925-17.076,19.117-32.773,16.081-48.617-38.15-90.579-20.483-132.455,8.238-19.527,27-19.288,32.772-40.966,7.7-28.934-21.161-48.723-20.142-81.9,0.688-22.383,14.965-30.027,11.949-53.285-3.261-25.152-24.891-34.157-24.579-57.352,0.248-18.434,18.562-31.713,36.869-57.352,9.3-13.024,16.816-27.239,17.752-32.773,3.87-22.875-8.655-46.5-8.193-71.007,0.071-3.783.457-8.847,4.1-12.289,9.823-9.293,39.491.478,58.718,17.751,46.767,42.016,16.3,122.63,53.255,188.442,11.492,20.468,24.644,26.653,32.947,48.609,18.753,49.587-10.456,88.673,13.481,135.737,9.62,18.915,21.831,21.4,30.041,40.965,11.423,27.226.6,54.362,17.752,77.835,14.086,19.272,31.363,13.409,42.331,31.407,21.835,35.828-29.152,86.843-8.193,122.9,11.825,20.341,37.844,17.667,55.986,34.138,45.694,41.484,26.39,132.437,19.118,159.767-13.454,50.55-36.905,78.78-57.352,94.22-15.725,11.87-32.059,19.1-34.138,16.39-5-6.53,81.65-61.82,90.124-144.75,2.1-20.54,2.367-65.944-24.579-95.586-20.747-22.822-51.971-20.943-64.18-45.062-19.292-38.113,34.577-90.627,13.655-122.9-9.795-15.108-25.357-9.091-38.234-24.579-19.829-23.85-3.52-56.73-19.117-87.393-8.321-16.358-19.054-17.146-28.676-32.773-29.668-48.179,10.707-98.3-17.752-150.207-7.888-14.389-17.248-18.858-25.945-32.773-25.825-41.316-23.383-85.735-31.407-150.207-1.072-8.616-4.7-35.283-24.579-55.986-13.681-14.248-35.546-27.1-45.063-20.483-5.228,3.633-5.312,12.038-5.087,17.6,1.033,25.515,15.394,61.159,9.184,86.183C419.387,382.605,383.1,387.412,380,418c-2.422,23.889,18.66,36.273,21,64,1.641,19.439-7.529,27.687-9,46-3.337,41.543,32.3,74.068,18.8,105.846-8.608,20.256-25.747,16.2-34.138,35.5-16.469,37.887,40.019,80.34,25.945,125.628-6.222,20.018-20.116,18.869-24.58,38.234-11.729,50.879,75.919,92.035,66.911,143.38-6.65,37.908-57.123,39.358-65.545,76.468-14.039,61.85,107.559,116.88,98.317,192.54-3.84,31.44-27.954,38.15-30.041,73.74-3.128,53.33,46.243,97.59,66.91,113.34,51.108,38.92,93.293,30.98,145.9,66.03,22.135,14.75,43.363,34.75,61.663,59.59,57.575,78.15,43.882,189.53,61.449,248.53C792.013,1835.13,839.343,1929.34,825.916,1939.28Z"/>
  <path class="cls-3" d="M993.508,1244.04c36.762,8.72,64.022-32.61,118.142-63,47.6-26.73,103.61-37.57,153.01-34.88,11.86,0.65,98.94,22.6,109.14,6.75,5.55-8.63-1.79-23.33-7.88-32.63-13.1-20-49.81-38.5-112.04-46.23-47.33-5.88-92.09-4.7-120.86.1-51.4,8.58-88.08,24.43-115.88,42.76-49.93,32.9-67.83,62.05-65.261,82.13S972.446,1239.05,993.508,1244.04Z"/>
  <path class="cls-3" d="M1353.55,983.018c-8.54,12.643-97.76-16.3-101.26-16.877-78.31-13-152.98,8.125-199.15,29.253-28.5,13.046-99,72.166-119.263,59.626-16.322-10.09-14.676-49.38-1.125-77.628,11.784-24.562,64.91-62.2,157.518-78.758a414.079,414.079,0,0,1,114.76-4.5c74.26,7.215,120.96,35.206,136.14,55.131C1349.05,959.6,1358.75,975.313,1353.55,983.018Z"/>
  <path class="cls-2" d="M1200.53,1409.44c-140.3-101.1-252.216-251.18-248.651-418.547,1.117-52.446,13.3-125.913,47.255-191.269,14.066-27.063,57.1-83.262,76.506-139.515,30.3-87.779,16.76-150.731,0-176.643-21.39-33.07-64.44-65.555-117.01-63.007-68.328,3.312-133.3,66.755-127.138,130.514,3.321,34.376,27.576,70.391,61.881,86.634,16,7.576,47.875,7.827,51.755,19.127,4.652,13.545-19,40.193-46.129,43.879-8.941,1.215-32.32-3.918-56.256-23.627-17.131-14.106-30.193-30.865-38.254-48.38-28.1-61.049-12.521-160.279,63.006-208.147,62.531-39.63,143.935-30.106,192.4,11.252,56.55,48.261,58.18,136.105,46.13,204.771-18.26,104.059-76.44,134.7-95.63,241.9a374.192,374.192,0,0,0-1.13,124.888c6.68,41.72,36.59,117.89,90.01,192.39a844.923,844.923,0,0,0,126.01,139.52,326.373,326.373,0,0,0,77.64-110.26c28.05-65.67,32.49-139.82,15.75-210.4-16.33-68.84-50.86-127.866-97.89-171.017a325.583,325.583,0,0,0-123.76-70.882c11.6-28.751,23.4-56.408,36-84.384,72.67-161.254,147.56-266.133,229.53-325.158,84.08-60.551,155.34-72.163,199.14-66.382,40.52,5.346,94.01,23.672,124.89,68.632,37.14,54.073,37.45,135.873-11.25,209.271,55.97,4.544,110.63,29.925,141.76,77.633,50.72,77.717,16.45,180.937-37.13,235.15-25.56,25.865-105.89,64.53-227.27,51.755-113.49-11.945-264.16-69.931-271.15-150.766-1.48-17.022,3.85-34.464,9-34.878,7.49-.6,13.15,42.875,30.38,70.882,28.04,45.575,91.69,85.112,217.14,96.76,127.97,11.882,209.86-27.359,236.28-56.256,38.37-41.965,70.08-119.026,39.38-184.519-10.86-23.159-30.09-44.734-57.38-61.881-13.54-8.5-45.71-20.455-81.01-25.878a397.5,397.5,0,0,0-67.51-4.5,246.607,246.607,0,0,0,52.88-85.509c20.66-57.455,14.14-103.691,5.63-120.387-24.01-47.1-79.95-61.455-104.64-65.257-34.01-5.237-104.87,6.517-182.27,68.632-76.33,61.257-116.41,133.143-151.89,213.772A1774.043,1774.043,0,0,0,1162.28,771.5c78.01,47.506,137.18,120.293,165.39,207.021,27.44,84.353,22.52,180.733-16.88,275.653C1286.25,1313.3,1248.61,1365.95,1200.53,1409.44Z"/>
</svg>
