<svg id="Bee" xmlns="http://www.w3.org/2000/svg" xmlns:xlink="http://www.w3.org/1999/xlink" width="250" height="250" viewBox="0 0 2000 2000">
  <defs>
    <style>
      .cls-1, .cls-7 {
        fill: none;
      }

      .cls-1 {
        stroke-width: 75px;
        stroke: url(#linear-gradient);
      }

      .cls-1, .cls-2, .cls-3, .cls-4, .cls-6, .cls-7 {
        fill-rule: evenodd;
      }

      .cls-2 {
        fill: #53baf1;
        opacity: 0.5;
      }

      .cls-3, .cls-5 {
        fill: #ffd760;
      }

      .cls-4 {
        fill: #2e1e0e;
      }

      .cls-6 {
        fill: #fff;
      }

      .cls-7 {
        stroke: #2e1e0e;
        stroke-width: 5px;
      }
    </style>
    <linearGradient id="linear-gradient" x1="1000.5" y1="1904.91" x2="1000.5" y2="96.125" gradientUnits="userSpaceOnUse">
      <stop offset="0" stop-color="#ffd760"/>
      <stop offset="0.33" stop-color="#bf93dc"/>
      <stop offset="0.67" stop-color="#53baf1"/>
      <stop offset="1" stop-color="#68de8d"/>
    </linearGradient>
  </defs>
  <path id="Polygon_1" data-name="Polygon 1" class="cls-1" d="M1810.51,1352.69a199.988,199.988,0,0,1-100,173.2L1100.5,1878.08a199.983,199.983,0,0,1-200,0L290.49,1525.89a199.988,199.988,0,0,1-100-173.2V648.314a200,200,0,0,1,100-173.206L900.5,122.92a200,200,0,0,1,200,0l610.01,352.188a200,200,0,0,1,100,173.206V1352.69Z"/>
  <path id="Left_Wing" data-name="Left Wing" class="cls-2" d="M1010.33,1080.47c25.78,8.37,53.02-1.28,80.98-18,21.8-13.03,268.16-163.98,222.88-287.2-8.85-24.077-28-44.313-57.21-60.9,9.51-30.91,11.13-62.665,3.82-93.083-15.31-63.739-70.23-124.6-125.48-126.138C1022.28,492,930.219,737.591,925.674,887.207a279.706,279.706,0,0,0,38.684,150.523C978.066,1061.06,992.5,1074.67,1010.33,1080.47Z"/>
  <g id="Body">
    <path id="Body-2" data-name="Body" class="cls-3" d="M702.28,1136.34c5.492,169.01,224.429,375.79,460.18,365.91,88.98-3.73,173.62-38.13,248.08-95.51q-22.95-12.4-45.89-24.8c8.98-96.16-12.08-188.82-69.47-259.24-22.48-27.6-54.16-53.24-99.23-79.39C1047.52,957.18,925.894,936.169,828.8,965.167c-51.443,15.364-80.959,39.443-96.749,60.783C711.439,1053.8,700.817,1091.33,702.28,1136.34Z"/>
    <path id="Stipe_1" data-name="Stipe 1" class="cls-4" d="M800.271,1343.48A405.513,405.513,0,0,0,1044.63,976.33c-51.871-17.923-105.724-25.464-158.773-21.086-50.87,4.2-91.851,20.9-110.394,33.49-29.869,20.286-50.351,45.476-62.019,71.946-9.385,21.28-18.351,70.94-2.481,131.48,5.81,22.16,18.622,52.38,37.212,83.1A400.193,400.193,0,0,0,800.271,1343.48Z"/>
    <path id="Stripe_2" data-name="Stripe 2" class="cls-4" d="M941.674,1450.16c0.239,0.12.478,0.25,0.718,0.38,24.717,13.05,48.346,23.21,71.228,30.63a408.548,408.548,0,0,0,70.7,16.12,474.418,474.418,0,0,0,153.81-425.45c-16.97-11.94-34.2-23.02-52.1-33.49a740.829,740.829,0,0,0-66.98-34.73A476.723,476.723,0,0,1,941.674,1450.16Z"/>
    <path id="Needle" class="cls-4" d="M1315.03,1465.04c13.06-6.77,26.37-13.85,39.69-21.09a348.8,348.8,0,0,0,34.73-21.08c7.29-5.1,14.27-10.44,21.09-16.13q-24.195-13.02-48.38-26.04A137.737,137.737,0,0,1,1315.03,1465.04Z"/>
  </g>
  <g id="Head">
    <path id="Left_Antenna" data-name="Left Antenna" class="cls-4" d="M707.178,722.031a3.277,3.277,0,0,0,3.182,0c2.964-1.484,3.114-6.757,3.183-8.487,1.421-35.835,5.831-64.167,0-101.841-5.669-36.628-8.99-59.619-27.392-82.3-14.281-17.6-24.666-23.867-32.556-21.345-7.987,2.553-13.759,14.57-10.982,23.093,3.107,9.533,22.443,13.426,26.585,16.107,47.039,30.442,37.361,165.505,36.919,170.528C706.056,718.483,705.789,721.041,707.178,722.031Z"/>
    <path id="Left_Antenna_copy" data-name="Left Antenna copy" class="cls-4" d="M858.348,759.963a3.276,3.276,0,0,0,2.386,2.106c3.2,0.848,6.8-3.006,8-4.258,24.777-25.927,46.83-44.253,67.386-76.358,19.986-31.215,32.709-50.65,33.918-79.832,0.938-22.646-2.7-34.216-10.287-37.546-7.677-3.37-19.957,1.82-23.514,10.049-3.978,9.2,7.944,24.917,9.276,29.667,15.126,53.95-81.5,148.814-85.155,152.288C859.854,756.56,857.961,758.3,858.348,759.963Z"/>
    <circle id="Face" class="cls-5" cx="736.39" cy="949.658" r="238.765"/>
    <g id="Right_Eye" data-name="Right Eye">
      <path id="Eye" class="cls-4" d="M806.473,889.5c18.5,0,33.49,18.6,33.49,41.553s-14.994,41.553-33.49,41.553-33.491-18.6-33.491-41.553S787.976,889.5,806.473,889.5Z"/>
      <path id="Eye_Glisten" data-name="Eye Glisten" class="cls-6" d="M815.041,900.487c8.563,0,15.5,7.5,15.5,16.746s-6.942,16.745-15.5,16.745-15.505-7.5-15.505-16.745S806.478,900.487,815.041,900.487Z"/>
    </g>
    <g id="Left_Eye" data-name="Left Eye">
      <path id="Eye-2" data-name="Eye" class="cls-4" d="M609.252,837.407c18.5,0,33.49,18.6,33.49,41.553s-14.994,41.553-33.49,41.553-33.491-18.6-33.491-41.553S590.755,837.407,609.252,837.407Z"/>
      <path id="Eye_Glisten-2" data-name="Eye Glisten" class="cls-6" d="M617.82,848.391c8.563,0,15.5,7.5,15.5,16.745s-6.942,16.745-15.5,16.745-15.5-7.5-15.5-16.745S609.257,848.391,617.82,848.391Z"/>
    </g>
    <path id="Mouth" class="cls-7" d="M653.39,987.949a24.808,24.808,0,0,0,49.25,6.014"/>
  </g>
  <path id="Right_Wing" data-name="Right Wing" class="cls-2" d="M1026.84,1084.71c18.68,21.28,48.31,27.15,82.36,27.06,26.55-.08,328.47-4.18,353.56-139.061,4.91-26.356-1.5-54.763-18.89-85.263,25.05-22.69,43.46-50.357,53.13-81.587,20.27-65.442,3.41-149.442-45.4-180.314-99.89-63.172-313.7,108.337-397.66,240.334a292.316,292.316,0,0,0-45.59,155.891C1008.21,1050.04,1013.91,1069.98,1026.84,1084.71Z"/>
</svg>
