<svg id="Lavender" xmlns="http://www.w3.org/2000/svg" xmlns:xlink="http://www.w3.org/1999/xlink" width="250" height="250" viewBox="0 0 2000 2000">
  <defs>
    <style>
      .cls-1, .cls-10, .cls-2 {
        fill: none;
      }

      .cls-1 {
        stroke-width: 50px;
        stroke: url(#linear-gradient);
      }

      .cls-1, .cls-10, .cls-11, .cls-2, .cls-3, .cls-4, .cls-5, .cls-6 {
        fill-rule: evenodd;
      }

      .cls-2 {
        stroke: #68de8d;
        stroke-width: 10px;
      }

      .cls-3 {
        fill: #bf93dc;
      }

      .cls-4 {
        fill: #53baf1;
        opacity: 0.5;
      }

      .cls-5, .cls-7 {
        fill: #ffd760;
      }

      .cls-10, .cls-5, .cls-7 {
        stroke: #2e1e0e;
        stroke-width: 5px;
      }

      .cls-6, .cls-8 {
        fill: #2e1e0e;
      }

      .cls-9 {
        fill: #fff;
      }

      .cls-11 {
        fill: #68de8d;
      }
    </style>
    <linearGradient id="linear-gradient" x1="1000.499" y1="1851.25" x2="1000.499" y2="149.781" gradientUnits="userSpaceOnUse">
      <stop offset="0" stop-color="#ffd760"/>
      <stop offset="0.33" stop-color="#bf93dc"/>
      <stop offset="0.67" stop-color="#53baf1"/>
      <stop offset="1" stop-color="#68de8d"/>
    </linearGradient>
  </defs>
  <path id="Polygon_1" data-name="Polygon 1" class="cls-1" d="M1764.06,1325.87a199.988,199.988,0,0,1-100,173.2L1100.5,1824.44a199.983,199.983,0,0,1-200,0L336.945,1499.07a199.987,199.987,0,0,1-100-173.2V675.133a200,200,0,0,1,100-173.205L900.5,176.56a200,200,0,0,1,200,0l563.56,325.368a200,200,0,0,1,100,173.205V1325.87Z"/>
  <path id="Stalk" class="cls-2" d="M1216,1729c-42.75-131.26-107.75-250.13-199-352-69.136-77.18-159.9-140.87-206-172-130.13-87.87-251.327-197.42-365-325"/>
  <path id="Petals_copy" data-name="Petals copy" class="cls-3" d="M1071.37,1441.84c-63.81,54.57-185.93.62-188.693-36-1.522-20.18,32.958-38.96,53.2-45.5a93.648,93.648,0,0,1,70.5,5.5,93.652,93.652,0,0,1,5.5-70.5c9.59-18.98,33.49-50.13,53.19-45.49C1100.81,1258.25,1135.18,1387.26,1071.37,1441.84Z"/>
  <path id="Petals_copy_2" data-name="Petals copy 2" class="cls-3" d="M941.4,1302.65c-58.865,77.82-210.9,46.93-223.141,6.05-6.746-22.53,27.725-52.42,49.073-64.87a108.84,108.84,0,0,1,81.391-11.29,108.806,108.806,0,0,1-11.286-81.39c6.175-23.93,25.557-65.23,49.074-64.87C929.183,1086.93,1000.27,1224.83,941.4,1302.65Z"/>
  <path id="Petals_copy_3" data-name="Petals copy 3" class="cls-3" d="M799.707,1192.04c-47.975,63.42-171.887,38.25-181.862,4.93-5.5-18.36,22.6-42.72,40-52.87a88.69,88.69,0,0,1,66.334-9.2,88.666,88.666,0,0,1-9.2-66.33c5.032-19.51,20.828-53.17,40-52.87C789.746,1016.23,847.682,1128.62,799.707,1192.04Z"/>
  <path id="Petals_copy_4" data-name="Petals copy 4" class="cls-3" d="M680.4,1107.76c-37.786,43.06-125.491,18.49-130.914-5.97-2.989-13.48,18.47-29.51,31.5-35.89a63.883,63.883,0,0,1,48.138-3.14,63.889,63.889,0,0,1-3.137-48.14c4.636-13.75,17.747-37.105,31.5-35.891C682.449,980.932,718.191,1064.71,680.4,1107.76Z"/>
  <path id="Petals_copy_5" data-name="Petals copy 5" class="cls-3" d="M564.364,1005.71c-33.747,33.22-104.578,7.68-107.576-12.809-1.652-11.295,17.006-23.219,28.134-27.7a52.81,52.81,0,0,1,39.878.314,52.807,52.807,0,0,1,.313-39.878c4.65-11.057,16.867-29.525,28.134-27.695C573.689,901.265,598.111,972.489,564.364,1005.71Z"/>
  <path id="Top_Petal" data-name="Top Petal" class="cls-3" d="M506,946c8.5-8.116-4.712-34.292-9-42-23.463-42.177-75.471-70.761-87-60-11.447,10.685,12.889,64,53,90C472.441,940.119,497.6,954.023,506,946Z"/>
  <path id="Stalk-2" data-name="Stalk" class="cls-2" d="M1462,1586c2.59-6.72,5.23-13.3,8-20,25.77-62.25,60.3-111.23,83.06-165.81,30.35-72.79,29.26-136.55,33.06-191.01,7.9-113.15,32.58-228.555,71.25-345.77"/>
  <path id="Petals_copy-2" data-name="Petals copy" class="cls-3" d="M1532.18,1457.64c-57.21-20.17-67.63-116.05-45.73-131.01,12.07-8.25,36.28,6.52,47.69,16.81a67.636,67.636,0,0,1,22.05,46.07,67.607,67.607,0,0,1,46.07-22.05c15.34-.87,43.46,2.81,47.69,16.81C1657.62,1409.66,1589.38,1477.8,1532.18,1457.64Z"/>
  <path id="Petals_copy_2-2" data-name="Petals copy 2" class="cls-3" d="M1572.22,1326.03c-69.95-8.67-105.62-114.91-84.48-137.34,11.65-12.37,42.81-1.62,58.31,7.22a78.62,78.62,0,0,1,36.49,46.82,78.6,78.6,0,0,1,46.82-36.49c17.2-4.79,50.03-7.61,58.31,7.23C1702.69,1240.39,1642.16,1334.7,1572.22,1326.03Z"/>
  <path id="Petals_copy_3-2" data-name="Petals copy 3" class="cls-3" d="M1590.15,1197.43c-57.01-7.07-86.08-93.65-68.85-111.94,9.49-10.08,34.88-1.32,47.52,5.89a64.017,64.017,0,0,1,29.74,38.16,64.034,64.034,0,0,1,38.16-29.74c14.01-3.91,40.77-6.2,47.52,5.89C1696.48,1127.63,1647.15,1204.5,1590.15,1197.43Z"/>
  <path id="Petals_copy_4-2" data-name="Petals copy 4" class="cls-3" d="M1599.71,1092.35c-40.59-8.06-56.94-71.79-43.61-84.02,7.35-6.75,25.13.87,33.84,6.72a46.145,46.145,0,0,1,19.37,28.96,46.158,46.158,0,0,1,28.96-19.37c10.28-2.07,29.62-2.32,33.84,6.72C1679.76,1047.77,1640.29,1100.41,1599.71,1092.35Z"/>
  <path id="Petals_copy_5-2" data-name="Petals copy 5" class="cls-3" d="M1621.56,982.884c-32.98-9.09-42.62-62.618-30.89-71.9,6.47-5.117,20.67,2.238,27.49,7.578a38.138,38.138,0,0,1,14.23,25.05,38.139,38.139,0,0,1,25.05-14.224c8.59-1.09,24.56-.129,27.49,7.578C1690.25,950.948,1654.54,991.974,1621.56,982.884Z"/>
  <path id="Top_Petal-2" data-name="Top Petal" class="cls-3" d="M1637.79,924.8c8.15,2.381,19.74-15.347,23.01-20.815,17.89-29.924,16.96-72.782,6.06-76.1-10.82-3.294-35.36,31.2-37.11,65.688C1629.34,901.684,1629.74,922.443,1637.79,924.8Z"/>
  <path id="Stalk-3" data-name="Stalk" class="cls-2" d="M817,1745c-42.025-34.36-77.88-74.56-106.162-121.17-26.679-43.96-45.059-100-51.91-122.14-22.955-74.19-57.453-147.25-101.559-219.33"/>
  <path id="Petals_copy-3" data-name="Petals copy" class="cls-3" d="M733.74,1658.85c34.974-22.38,26.928-87.92,9.99-94.47-9.335-3.61-23.163,10.02-29.157,18.66a46.324,46.324,0,0,0-7.5,34.16,46.326,46.326,0,0,0-34.157-7.49c-10.359,1.82-28.527,8.67-29.156,18.66C642.623,1646.49,698.766,1681.24,733.74,1658.85Z"/>
  <path id="Petals_copy_2-3" data-name="Petals copy 2" class="cls-3" d="M686.471,1577.4c45.267-16.72,52.425-93.11,34.828-104.76-9.7-6.42-28.785,5.62-37.737,13.94a53.8,53.8,0,0,0-17,36.91,53.781,53.781,0,0,0-36.91-17c-12.213-.51-34.54,2.75-37.737,13.94C586.113,1540.72,641.2,1594.12,686.471,1577.4Z"/>
  <path id="Petals_copy_3-3" data-name="Petals copy 3" class="cls-3" d="M654.41,1494.48c36.892-13.62,42.726-75.88,28.384-85.37-7.9-5.24-23.459,4.57-30.756,11.35a43.872,43.872,0,0,0-13.855,30.09,43.84,43.84,0,0,0-30.082-13.86c-9.953-.41-28.149,2.24-30.756,11.36C572.617,1464.59,617.517,1508.11,654.41,1494.48Z"/>
  <path id="Petals_copy_4-3" data-name="Petals copy 4" class="cls-3" d="M631.605,1425.94c25.792-11.72,26.726-56.75,15.925-62.82-5.953-3.35-16.615,4.51-21.5,9.77a31.573,31.573,0,0,0-8.38,22.33,31.616,31.616,0,0,0-22.337-8.38c-7.172.23-20.106,3.09-21.5,9.77C571.278,1408.74,605.813,1437.66,631.605,1425.94Z"/>
  <path id="Petals_copy_5-3" data-name="Petals copy 5" class="cls-3" d="M599.92,1356.4c20.559-11.22,18.616-48.41,9.345-52.76-5.109-2.4-13.426,4.72-17.139,9.35a26.114,26.114,0,0,0-5.563,18.92,26.117,26.117,0,0,0-18.921-5.56c-5.9.61-16.392,3.75-17.14,9.35C549.146,1345.85,579.361,1367.61,599.92,1356.4Z"/>
  <path id="Top_Petal-3" data-name="Top Petal" class="cls-3" d="M580.016,1320.22c-5.059,2.86-15.557-7.15-18.591-10.28-16.6-17.15-22.685-45.86-15.94-49.78,6.7-3.88,28.448,15.27,35.01,37.98C582.039,1303.49,585.018,1317.39,580.016,1320.22Z"/>
  <path id="Left_Wing" data-name="Left Wing" class="cls-4" d="M1041.35,863.954c20.78,6.754,42.74-1.027,65.29-14.507,17.58-10.509,216.19-132.2,179.68-231.544-7.13-19.411-22.57-35.725-46.12-49.1,7.67-24.919,8.98-50.52,3.08-75.043-12.34-51.386-56.62-100.454-101.16-101.693C1050.98,389.53,976.765,587.528,973.1,708.149A225.482,225.482,0,0,0,1004.29,829.5C1015.34,848.306,1026.98,859.282,1041.35,863.954Z"/>
  <g id="Body">
    <path id="Body-2" data-name="Body" class="cls-5" d="M793,909c4.428,136.26,180.935,302.96,371,295,71.73-3.01,139.97-30.75,200-77q-18.495-10.005-37-20c7.25-77.52-9.73-152.22-56-209-18.13-22.25-43.67-42.918-80-64-119.67-69.439-217.722-86.378-296-63-41.474,12.386-65.27,31.8-78,49C800.384,842.457,791.821,872.711,793,909Z"/>
    <path id="Stipe_1" data-name="Stipe 1" class="cls-6" d="M872,1076a326.928,326.928,0,0,0,197-296c-41.82-14.45-85.232-20.529-128-17-41.012,3.385-74.051,16.847-89,27-24.08,16.354-40.593,36.665-50,58-7.566,17.159-14.795,57.2-2,106,4.684,17.865,15.014,42.229,30,67A322.6,322.6,0,0,0,872,1076Z"/>
    <path id="Stripe_2" data-name="Stripe 2" class="cls-6" d="M986,1162c0.192,0.1.385,0.2,0.578,0.31A363.772,363.772,0,0,0,1044,1187a329.211,329.211,0,0,0,57,13,382.467,382.467,0,0,0,124-343c-13.67-9.623-27.57-18.558-42-27a595.933,595.933,0,0,0-54-28A384.315,384.315,0,0,1,986,1162Z"/>
    <path id="Needle" class="cls-6" d="M1287,1174c10.53-5.46,21.26-11.17,32-17a282.732,282.732,0,0,0,28-17c5.88-4.11,11.5-8.42,17-13l-39-21A111.082,111.082,0,0,1,1287,1174Z"/>
  </g>
  <g id="Head">
    <path id="Right_Antenna" data-name="Right Antenna" class="cls-6" d="M936.136,603.914c2.027,1.8,75.424-60.23,71.354-128.881-1.09-18.31-5.01-27.464-10.849-29.452-6.4-2.18-15.906,2.834-18.2,9.688-2.622,7.846,5.224,15.078,9.491,23.194C1010.83,522.01,933.949,601.968,936.136,603.914Z"/>
    <path id="Left_Antenna" data-name="Left Antenna" class="cls-6" d="M799.394,565.716c2.7,0.243,24.749-93.3-19.4-146.029-11.774-14.064-20.372-19.086-26.246-17.208-6.439,2.058-11.093,11.746-8.854,18.617,2.563,7.865,13.173,9.006,21.433,12.986C810.654,455.439,796.478,565.455,799.394,565.716Z"/>
    <circle id="Face" class="cls-7" cx="820.5" cy="758.5" r="192.5"/>
    <g id="Right_Eye" data-name="Right Eye">
      <ellipse id="Eye" class="cls-8" cx="877" cy="743.5" rx="27" ry="33.5"/>
      <ellipse id="Eye_Glisten" data-name="Eye Glisten" class="cls-9" cx="874.5" cy="731.5" rx="12.5" ry="13.5"/>
    </g>
    <g id="Left_Eye" data-name="Left Eye">
      <ellipse id="Eye-2" data-name="Eye" class="cls-8" cx="718" cy="701.5" rx="27" ry="33.5"/>
      <ellipse id="Eye_Glisten-2" data-name="Eye Glisten" class="cls-9" cx="715.5" cy="689.5" rx="12.5" ry="13.5"/>
    </g>
    <path id="Mouth" class="cls-10" d="M753.585,789.367a20,20,0,1,0,39.7,4.848"/>
  </g>
  <path id="Right_Wing" data-name="Right Wing" class="cls-4" d="M1054.66,867.372c15.06,17.16,38.95,21.893,66.4,21.818,21.4-.059,264.81-3.368,285.04-112.11,3.96-21.247-1.21-44.149-15.23-68.739,20.2-18.292,35.04-40.6,42.84-65.775,16.33-52.76,2.75-120.481-36.61-145.37-80.53-50.929-252.9,87.342-320.59,193.758a235.705,235.705,0,0,0-36.76,125.677C1039.64,839.427,1044.24,855.5,1054.66,867.372Z"/>
  <path id="Leaf" class="cls-11" d="M499,1564c-44.834-66.16-75.843-138.79-90-217-12.851-71-14.22-156.56,2-160,10.992-2.33,28.026,33.37,41,65,36.843,89.82,30.713,175.43,50,246a494.6,494.6,0,0,0,33,87Z"/>
  <path id="Leaf-2" data-name="Leaf" class="cls-11" d="M487,1557c-18.264-26.34-35.331-52.26-52-79-60.542-97.14-94.964-168.63-179-247-36.194-33.76-74.592-65.99-85-58-14.788,11.36,27.617,103.39,92,180,25.772,30.67,51.558,53.35,78,76a1389.665,1389.665,0,0,1,115,111Q471.5,1548.505,487,1557Z"/>
  <path id="Leaf-3" data-name="Leaf" class="cls-11" d="M1225,1723c-5.67-30.7-11.9-60.25-19-90-8.5-35.64-45.88-188.69-16-274,5.4-15.42,10.94-23.81,17-24,14.22-.44,28.17,44.35,34,79,5.87,34.93,2.05,81.48,1,88-9.16,56.92-8.42,139.47-5,215Z"/>
  <path id="Leaf-4" data-name="Leaf" class="cls-11" d="M1313,1674c3.89-14.62,8.1-28.91,12.8-43.53,1.69-5.24,3.53-10.46,5.25-15.81,13.3-41.3,42.45-142.16,26.94-203.08-3.24-12.76-7.1-19.89-11.95-20.47-11.39-1.36-25.76,33.62-32.88,61.03-7.19,27.64-7.41,65.2-7.02,70.6,3.2,44.41-2.49,104.47-10.14,160.26Q1304.505,1678.5,1313,1674Z"/>
  <path id="Leaf-5" data-name="Leaf" class="cls-11" d="M1193,1742c-16.76-12.53-33.64-24.45-51.38-36.28-4.68-3.12-9.63-6.25-14.47-9.49-37.46-25.07-126.23-88.45-152.876-148.08-5.58-12.48-7.04-20.78-3.457-24.38,8.4-8.45,42.663,10.79,66.133,28.53,23.65,17.87,48.01,48.26,51.23,52.98,26.67,39.09,72.69,87.06,116.82,129.72Q1199,1738.5,1193,1742Z"/>
  <path id="Leaf-6" data-name="Leaf" class="cls-11" d="M1449,1594a1161.687,1161.687,0,0,0,116-115c18.12-20.73,84.68-111.62,142-164,77.09-70.45,163.42-122.13,171.8-112.32,6.21,7.28-30.61,48.27-79.8,101.32-85.9,92.63-167.86,167.67-254,232-6.34,4.74-12.63,9.37-19,14Q1487.5,1572.005,1449,1594Z"/>
</svg>
